# xmcd
#
# Track frame offsets:
#	150
#	13113
#	27655
#	42865
#	56300
#	69756
#	86802
#	102676
#	117461
#	131967
#	147424
#	166086
#	186033
#	201715
#	220972
#
# Disc length: 3109 seconds
#
# Revision: 1
# Processed by: cddbd v1.5.2PL0 Copyright (c) Steve Scherf et al.
# Submitted via: audiograbber 1.83.01
#
DISCID=e70c230f
DTITLE=Brendan Quinn - Classic Country
DYEAR=2006
DGENRE=Country
TTITLE0=Ruby Don`t Take Your Love To Town
TTITLE1=A Legend In My Time
TTITLE2=Blue Ridge Mountain Girl
TTITLE3=Behind Closed Doors
TTITLE4=I Fell In Love (( Can`t Get Out)
TTITLE5=A Letter Edged In Black
TTITLE6=Medley
TTITLE7=Mama She`s Crazy
TTITLE8=Then It`s Love
TTITLE9=Jody And The Kid
TTITLE10=Carry This Torch
TTITLE11=Medley
TTITLE12=Sleeping Alone
TTITLE13=Irish Heartbeat
TTITLE14=Fool Enough To Give It One More Try
EXTD=
EXTT0=
EXTT1=
EXTT2=
EXTT3=
EXTT4=
EXTT5=
EXTT6=
EXTT7=
EXTT8=
EXTT9=
EXTT10=
EXTT11=
EXTT12=
EXTT13=
EXTT14=
PLAYORDER=
